<?xml version="1.0" encoding="utf-8"?>
<!-- Generator: Adobe Illustrator 21.0.0, SVG Export Plug-In . SVG Version: 6.00 Build 0)  -->
<svg version="1.1" id="F" xmlns="http://www.w3.org/2000/svg" xmlns:xlink="http://www.w3.org/1999/xlink" x="0px" y="0px"
	 viewBox="0 0 174.7 167.8" style="enable-background:new 0 0 174.7 167.8;" xml:space="preserve">
<style type="text/css">
	.st0{fill:#F16022;}
	.st1{fill:#162B53;}
	.st2{fill:#231F20;}
</style>
<g>
	<rect x="65.3" y="110.8" class="st0" width="44" height="4.8"/>
	<rect x="65.3" y="101.1" class="st0" width="44" height="4.8"/>
	<rect x="65.3" y="91.5" class="st0" width="44" height="4.8"/>
	<rect x="65.3" y="81.8" class="st0" width="44" height="4.8"/>
	<rect x="65.3" y="72.1" class="st0" width="44" height="4.8"/>
	<rect x="65.3" y="62.5" class="st0" width="44" height="4.8"/>
	<path class="st1" d="M107.1,56.5c-2.4,0.6-4.9,0.8-7.1,0.8c-5.6,0-10.1-1.3-10.3-1.4l-0.1,0l-5.8-2.1c-9.3-2.9-17.5,0-17.6,0
		l-1.6-4.5c0.4-0.1,9.7-3.5,20.7,0l0.1,0l5.8,2.1c0.6,0.2,7.9,2.2,14.9,0.5l2.9-0.8l1.3,4.6L107.1,56.5z"/>
	<path class="st1" d="M107.1,46.9c-2.4,0.6-4.9,0.8-7.1,0.8c-5.6,0-10.1-1.3-10.3-1.4l-0.1,0l-5.8-2.1c-9.4-2.9-17.5,0-17.6,0
		l-1.6-4.5c0.4-0.1,9.7-3.5,20.7,0l0.1,0l5.8,2.1c0.6,0.2,7.9,2.2,14.9,0.5l2.9-0.8l1.3,4.6L107.1,46.9z"/>
	<path class="st1" d="M107.1,37.4c-2.4,0.6-4.9,0.8-7.1,0.8c-5.6,0-10.1-1.3-10.3-1.4l-0.1,0l-5.8-2.1c-9.4-2.9-17.5,0-17.6,0
		l-1.6-4.5c0.4-0.1,9.7-3.5,20.7,0l0.1,0l5.8,2.1c0.6,0.2,7.9,2.2,14.9,0.5l2.9-0.8l1.3,4.6L107.1,37.4z"/>
	<path class="st1" d="M107.1,27.9c-2.4,0.6-4.9,0.8-7.1,0.8c-5.6,0-10.1-1.3-10.3-1.4l-0.1,0l-5.8-2.1c-9.4-2.9-17.5,0-17.6,0
		l-1.6-4.5c0.4-0.1,9.7-3.5,20.7,0l0.1,0l5.8,2.1c0.6,0.2,7.9,2.2,14.9,0.5l2.9-0.8l1.3,4.6L107.1,27.9z"/>
	<path class="st1" d="M107.1,18.3c-2.4,0.6-4.9,0.8-7.1,0.8c-5.6,0-10.1-1.3-10.3-1.4l-0.1,0l-5.8-2.1c-9.3-2.9-17.5,0-17.6,0
		l-1.6-4.5c0.4-0.1,9.7-3.5,20.7,0l0.1,0l5.8,2.1c0.6,0.2,7.9,2.2,14.9,0.5l2.9-0.8l1.3,4.6L107.1,18.3z"/>
	<path class="st1" d="M107.1,8.8c-2.4,0.6-4.9,0.8-7.1,0.8c-5.6,0-10.1-1.3-10.3-1.4l-0.1,0l-5.8-2.1c-9.4-2.9-17.5,0-17.6,0
		l-1.6-4.5c0.4-0.1,9.7-3.5,20.7,0l0.1,0l5.8,2.1c0.6,0.2,7.9,2.2,14.9,0.5l2.9-0.8l1.3,4.6L107.1,8.8z"/>
	<path class="st2" d="M173.2,153.9c-0.6,0-1.4-0.5-1.4-1.3c0-0.4,0.2-0.8,0.8-1.2c-0.2-0.3-0.3-0.8-0.9-0.8c-1.7,0-2.8,3.4-2.8,3.4
		l0.1,6c0,0.6,1.6,0.7,1.9,0.7v0.5c-0.7-0.1-1.9-0.1-3.1-0.1c-1.1,0-2.1,0-2.9,0.1v-0.5c0.5,0,1.8-0.4,1.8-0.7v-9.3
		c-0.5-0.3-1-0.3-1.8-0.3l-0.1-0.5c1.5,0,2.5-0.2,3.8-0.5l0.3,3.4c0.4-1.1,1.6-3.3,3.7-3.3c1.4,0,2.2,0.9,2.2,2.5
		C174.7,152.9,174,153.9,173.2,153.9z"/>
	<path class="st2" d="M162.2,155.2c0-0.3,0-0.5,0-0.7c0-0.5-0.1-0.8-0.1-1.1c-0.6-2.7-2.8-3.5-4.5-3.5c-2.4,0-5.7,1.4-5.7,6.1
		c0,4,2.6,5.9,5.5,5.9c3,0,4.4-2.2,4.8-3.1l-0.8-0.5c-0.3,0.9-1.4,2.9-3.9,2.9c-2,0-2.9-2.9-2.9-5.3v-0.6L162.2,155.2z M157,150.4
		c1.4,0,2.3,0.9,2.6,2c0.1,0.4,0.1,0.9,0.1,1.4c0,0.3,0,0.6,0,0.9l-5,0C154.8,152.1,155.6,150.4,157,150.4z"/>
	<path class="st2" d="M146.3,161.2c-0.8,0-1.7,0-2.5,0.1v-0.5c0.7,0,1.8-0.3,1.8-0.7c0,0,0-4.7,0-5.7c0-2-0.7-3.5-2.2-3.5
		c-1.1,0-2.8,1.2-3.4,3v6.3c0,0.3,1.1,0.5,1.9,0.6v0.5c-0.7-0.1-1.9-0.1-3-0.1c-1.1,0-2.1,0-2.9,0.1v-0.5c0.7,0,1.8-0.3,1.8-0.7
		c0-1.2,0.1-2.8,0.1-4.5c0-1.7,0-3.3-0.1-4.4c-0.6-0.3-0.9-0.3-1.8-0.4v-0.5c0.2,0,0.4,0,0.5,0c1.2,0,2.3-0.2,3.3-0.5l0.2,2.8
		c0.5-0.8,1.9-2.7,3.8-2.7c3.3,0,4,2.7,4,4.4v5.8c0,0.4,1.2,0.8,1.8,0.8v0.5C149.1,161.3,147.8,161.2,146.3,161.2z"/>
	<path class="st2" d="M131,160.8c1,0,1.6-1,2.1-2.4l0.6,0.3c-0.5,1.4-1.1,2.8-3.2,2.8c-1.1,0-2-0.3-2.5-0.9
		c-0.5-0.6-0.7-1.5-0.7-3.5v-6.7h-2.3V150c0.8,0,2.5-0.6,3-1.2c0.4-0.5,1.1-1.8,1.1-3.1h0.7c-0.1,0.8-0.1,1.7-0.1,2.8
		c0,0.4,0,0.8,0,1.3l3.2-0.1l-0.2,0.7h-3v7.7C129.6,159.7,130.1,160.8,131,160.8z"/>
	<path class="st2" d="M121.5,153.9c-0.6,0-1.4-0.5-1.4-1.3c0-0.4,0.2-0.8,0.8-1.2c-0.2-0.3-0.3-0.8-0.9-0.8c-1.7,0-2.8,3.4-2.8,3.4
		l0.1,6c0,0.6,1.6,0.7,1.9,0.7v0.5c-0.7-0.1-1.9-0.1-3.1-0.1c-1.1,0-2.1,0-2.9,0.1v-0.5c0.5,0,1.8-0.4,1.8-0.7v-9.3
		c-0.5-0.3-1-0.3-1.8-0.3l-0.1-0.5c1.5,0,2.5-0.2,3.8-0.5l0.3,3.4c0.4-1.1,1.6-3.3,3.7-3.3c1.4,0,2.2,0.9,2.2,2.5
		C123.1,152.9,122.4,153.9,121.5,153.9z"/>
	<path class="st2" d="M111,159c-0.2,1.1-0.4,1.6-1.2,1.6c-0.8,0-0.9-1-0.9-1.9c0-1.5,0.1-3.2,0.1-5c0-2.6-2.3-4.1-4.5-4.1
		c-0.7,0-1.9,0-2.9,0.8c-0.6,0.4-1.3,1.1-1.3,2c0,0.8,0.7,1.6,1.4,1.6c0.5,0,1.5-0.3,1.5-1.4c0-0.4,0-1.3-0.8-1.3
		c0.1-0.6,0.8-1.2,1.9-1.2c1.8,0,2.4,1.2,2.4,2.7c0,1.1-0.1,2.1-0.1,2.1c-1,0.1-6.9-0.3-6.9,3.3c0,2.5,1.8,3.3,3.4,3.3
		c1.8,0,3-1.5,3.6-2.2c0.1,1,0.6,2.1,2,2.1c1.6,0,2.5-0.9,2.7-2.3L111,159z M106.6,158.7c-0.4,0.7-1.2,1.6-2.3,1.6
		c-1.1,0-2.1-0.6-2.1-2.3c0-2.5,1.8-2.3,4.5-2.6V158.7z"/>
	<path class="st2" d="M91.5,153.3c3.7,0,6-1.9,6-4.6c0-3.3-3.1-5.1-5.3-5.1c-1.7,0-4.5-0.1-7.6-0.1v0.5c0,0,1.9,0.1,1.9,0.8
		c0.1,1,0.1,4.6,0.1,8c0,3.5,0,6.8-0.1,7.4c-0.1,0.6-1.7,0.6-2.2,0.6c-0.1,0-0.1,0-0.1,0v0.5c3,0,7.7,0.1,7.7,0.1V161
		c-0.2,0-0.3,0-0.5,0c-1,0-2-0.3-2-1l0-7C89.4,153,90,153.3,91.5,153.3z M89.4,144.3c0.5,0,1,0,1.5,0c0.4,0,0.8,0,1.2,0.1
		c2.3,0.4,2.5,2.3,2.5,4.3c0,1.9-1,4-3.3,4c-1.4,0-1.9-0.1-1.9-0.1V144.3z"/>
	<path class="st2" d="M81.6,158.4c0,1.3-0.2,2-1.4,2c-0.9,0-1.7-1.1-2.1-1.6l-0.7-0.9c0.3-0.4,1.5-2.2,1.5-3.5
		c0-0.7,0.3-1.2,0.5-1.4c0.2-0.2,0.8-0.3,1.8-0.3l0-0.5h-5.4l0.1,0.4c0.7,0,1.2,0.2,1.6,0.8c0.3,0.4,0.4,0.7,0.4,1
		c0,1.3-0.1,2.1-0.9,3.1c-2.4-2.9-4.2-5.2-4.9-6.2c2.4-1.5,3.9-2.6,3.9-4.5c0-2.3-1.8-3.1-4.1-3.1c-1.5,0-3.8,1.1-3.8,3.7
		c0,1.5,0.9,3.2,1.7,4.1c-0.4,0.3-0.9,0.6-1.3,0.8c-1.6,1.3-2.5,2.4-2.5,4.6v0c0,1.9,0.5,2.3,1,2.9c0.9,1.3,3,1.8,4.6,1.8
		c1.8,0,3.5-0.8,4.8-2.2l1.1,1.2c0.4,0.5,1.2,1,2.7,1c2,0,2.3-2,2.3-3.1L81.6,158.4z M71.8,144.3c1.4,0,2.2,1.1,2.2,2.8
		c0,2.1-0.7,2.4-2.6,3.4c-0.9-1-1.7-2.1-1.7-3.2C69.7,145.8,70.5,144.3,71.8,144.3z M72.3,160.4c-1.3,0-2.6-0.8-3.3-1.9
		c-0.6-0.9-1-1.7-1-2.7c0-0.9,0.3-2.6,2.2-3.6c0,0,3.3,3.9,5.4,6.7C74.4,160.1,73.7,160.4,72.3,160.4z"/>
	<path class="st2" d="M64.6,150.5c-0.5,0-1.1,0.1-1.3,0.2c-0.3,0.2-0.7,1.2-0.9,1.7l-5,12.1c-0.3,0.8-0.9,1.8-1.6,2.4
		c-0.7,0.6-1.6,0.9-2.6,0.9c-1.1,0-2.7-0.9-2.7-2.2c0-1.3,0.8-1.8,1.5-1.8c0.8,0,1.8,0.4,1.8,1.4c0,0.6-0.4,1.2-1.1,1.4
		c0.3,0.2,0.8,0.3,1.2,0.3c0.5,0,1.1-0.6,1.4-0.8c1-0.9,1.9-3.4,2.2-4.3l-4.3-10c-0.2-0.5-0.7-0.9-1-1c-0.5-0.2-1.3-0.3-1.6-0.3
		v-0.4c0.9,0.1,1.9,0.1,3,0.1c1.4,0,2.7-0.1,3.3-0.1l-0.1,0.4c-0.8,0-1.2,0.1-1.2,0.7c0,0.2,0.1,0.5,0.2,0.8l2.8,7.2l3-7
		c0.1-0.3,0.2-0.6,0.2-0.8c0-0.9-1-0.9-2-0.9l0.1-0.4c0.6,0.1,1.6,0.1,2.5,0.1c0.9,0,1.7,0,2.2-0.2L64.6,150.5z"/>
	<path class="st2" d="M47.7,153.9c-0.6,0-1.4-0.5-1.4-1.3c0-0.4,0.2-0.8,0.8-1.2c-0.2-0.3-0.3-0.8-0.9-0.8c-1.7,0-2.8,3.4-2.8,3.4
		l0.1,6c0,0.6,1.6,0.7,1.9,0.7v0.5c-0.7-0.1-1.9-0.1-3.1-0.1c-1.1,0-2.1,0-2.9,0.1v-0.5c0.5,0,1.8-0.4,1.8-0.7v-9.3
		c-0.5-0.3-1-0.3-1.8-0.3l-0.1-0.5c1.5,0,2.5-0.2,3.8-0.5l0.3,3.4c0.4-1.1,1.6-3.3,3.7-3.3c1.4,0,2.2,0.9,2.2,2.5
		C49.2,152.9,48.5,153.9,47.7,153.9z"/>
	<path class="st2" d="M37,160.8v0.3c-1.1,0.1-2.8,0.3-3.8,0.5l-0.2-3.1c0,0-1.9,3-4.1,3c-2.7,0-3.5-1.6-3.5-4l0-6.8
		c-0.4-0.2-1-0.2-1.6-0.2v-0.5c1.1,0,2.8-0.1,4-0.3l-0.1,7.7c0,1.4,0.3,3.2,1.5,3.2c2.3,0,3.8-3.7,3.8-3.7V151
		c-0.4-0.3-0.9-0.3-1.7-0.3v-0.5c1.2,0,3.2-0.1,4.1-0.3c0,0-0.2,3.4-0.2,5.6c0,0.4,0,0.9,0,1.4c0,1.8,0,3.6,0,3.6
		C35.6,160.8,36.2,160.8,37,160.8z"/>
	<path class="st2" d="M18.8,161.2c-1.3,0-2.6,0.1-3.2,0.2v-0.5c0.7,0,1.8-0.1,1.9-0.6c0.1-1.9,0.1-4.6,0.1-7.4c0-3.1,0-6.3-0.1-8.4
		c-0.5-0.4-1-0.6-1.9-0.6v-0.5c1.6-0.1,2.8-0.4,4.3-0.6c-0.1,2.1-0.1,4-0.1,6.1c0,3.1,0.1,6.6,0.1,11.4c0.1,0.5,1.3,0.5,1.9,0.6v0.5
		C20.8,161.2,19.8,161.2,18.8,161.2z"/>
	<path class="st2" d="M12.5,147.7c-0.2-1-1-3.3-2.9-3.3H5.2v7.7H9c1.1,0,1.3-1.2,1.4-2.2h0.7v5.1h-0.5c-0.1-1.4-0.6-2.2-1.6-2.2H5.2
		v6.9c0,0.7,0.2,1.3,1,1.4c0.2,0,0.4,0,0.6,0c0.4,0,0.8,0,0.8,0c0,0,0,0.2,0,0.4c0,0.1,0,0.1,0,0.2c-0.9-0.1-2.2-0.1-3.6-0.1
		c-1.4,0-2.8,0-3.9,0.1V161c0.5,0,2.2-0.1,2.3-0.6c0.1-0.7,0.2-7.2,0.2-11.5c0-2.1,0-3.7-0.1-4c-0.1-0.5-2.1-0.8-2.1-0.8v-0.5
		c1.9,0.1,4.3,0.1,6.6,0.1c2.3,0,4.4,0,6-0.1l0.1,4.1H12.5z"/>
</g>
</svg>
