<?xml version="1.0" encoding="utf-8"?>
<!-- Generator: Adobe Illustrator 21.0.0, SVG Export Plug-In . SVG Version: 6.00 Build 0)  -->
<svg version="1.1" id="Layer_1" xmlns="http://www.w3.org/2000/svg" xmlns:xlink="http://www.w3.org/1999/xlink" x="0px" y="0px"
	 viewBox="0 0 90.7 90.7" style="enable-background:new 0 0 90.7 90.7;" xml:space="preserve">
<style type="text/css">
	.st0{fill:#FFFFFF;}
</style>
<path class="st0" d="M45.3,0C20.3,0,0,20.3,0,45.3s20.3,45.3,45.3,45.3c25,0,45.3-20.3,45.3-45.3S70.4,0,45.3,0z M33.9,62.4h-9V35.3
	h9V62.4z M29.3,31.6L29.3,31.6c-3.1,0-5-2-5-4.7c0-2.7,2-4.7,5.1-4.7s5,2,5,4.7C34.4,29.5,32.5,31.6,29.3,31.6z M66.4,62.4h-9V47.9
	c0-3.6-1.3-6.1-4.6-6.1c-2.5,0-4,1.7-4.6,3.3c-0.3,0.6-0.3,1.4-0.3,2.2v15.1h-9c0,0,0.1-24.5,0-27.1h9v3.8c1.2-1.8,3.3-4.5,8.1-4.5
	c5.9,0,10.4,3.9,10.4,12.2V62.4z"/>
</svg>
