<?xml version="1.0" encoding="utf-8"?>
<!-- Generator: Adobe Illustrator 21.0.0, SVG Export Plug-In . SVG Version: 6.00 Build 0)  -->
<svg version="1.1" id="F" xmlns="http://www.w3.org/2000/svg" xmlns:xlink="http://www.w3.org/1999/xlink" x="0px" y="0px"
	 viewBox="0 0 89 23.2" style="enable-background:new 0 0 89 23.2;" xml:space="preserve">
<style type="text/css">
	.st0{fill:#231F20;}
</style>
<g>
	<g>
		<path class="st0" d="M6.9,8C6.7,7.7,6.6,7.3,6.4,6.7C6,5.6,5.5,4.2,4.1,4.1c1.2,0,2.2-0.9,2.2-1.8C6.3,1,5,0.2,4,0.2H2
			c-0.6,0-1.2,0-1.9,0v0.2c0,0,0.9,0.1,1,0.4c0,0.1,0,1.6,0,3.4c0,1.1,0,2.4,0,3.4c0,0.3,0,0.4-0.1,0.5C1,8.3,0.3,8.3,0,8.3v0.2
			c0.4,0,0.9,0,1.5,0c0.7,0,1.5,0,2,0l0-0.3c0,0-0.1,0-0.6,0C2.5,8.3,2.5,8,2.5,7.6l0-3.3l0.9,0c0.9,0,1.4,1.3,1.6,2.3
			C5.1,7.2,5.3,8,5.3,8.4c0,0,0,0.1,0,0.1l2.4,0V8.4C7.5,8.4,7.2,8.4,6.9,8z M3.4,4C3.3,4,3.2,4,2.5,4V0.5c0.2,0,0.4,0,0.7,0
			c0.3,0,0.5,0,0.7,0.1c0.6,0.2,1,0.9,1,1.7C4.9,3.1,4.4,4,3.4,4z"/>
		<path class="st0" d="M9.7,8.6V8.3c0,0,0.3,0,0.4,0c0.2,0,0.7,0,0.7-0.3c0.1-0.4,0.1-3.2,0.1-5.1c0-1.1,0-2,0-2.1
			c0-0.2-1-0.4-1-0.4V0.2c0.9,0,2.1,0,3.1,0c1.1,0,2.1,0,2.8,0l0,1.9h-0.3c-0.1-0.5-0.5-1.6-1.4-1.6h-2.1v3.6h2
			c0.5,0,0.6-0.6,0.7-1.1h0.3v2.4h-0.3c0-0.6-0.3-1-0.8-1h-1.9v3.2c0,0.3,0.1,0.6,0.5,0.6h2c0.5,0,1-1,1.1-1.7H16l-0.1,2H9.7z"/>
		<path class="st0" d="M22.6,0.2c-0.8,0-2.2,0-3.6,0v0.2c0.4,0,1,0.1,1,0.6v6.7c-0.1,0.3-0.5,0.6-1.2,0.6v0.2c2.1,0,3.1,0,3.5,0
			c3,0,4.3-2.1,4.3-4C26.5,1.2,24.2,0.2,22.6,0.2z M25.1,4.7c0,2.5-0.6,3.6-3.2,3.6c-0.4,0-0.7-0.3-0.7-0.7c0-0.2,0-0.5,0-1
			c0-1.3,0-3.5,0-4.9V0.6c0.3,0,0.6,0,0.8,0C24.5,0.5,25.1,2,25.1,4.7L25.1,4.7z"/>
		<path class="st0" d="M28.9,8.6V8.3c0,0,0.3,0,0.4,0c0.2,0,0.7,0,0.7-0.3c0.1-0.4,0.1-3.2,0.1-5.1c0-1.1,0-2,0-2.1
			c0-0.2-1-0.4-1-0.4V0.2c0.9,0,2.1,0,3.1,0c1.1,0,2.1,0,2.8,0l0,1.9h-0.3c-0.1-0.5-0.5-1.6-1.4-1.6h-2.1v3.6h2
			c0.5,0,0.6-0.6,0.7-1.1h0.3v2.4h-0.3c0-0.6-0.3-1-0.8-1h-1.9v3.2c0,0.3,0.1,0.6,0.5,0.6h2c0.5,0,1-1,1.1-1.7h0.3l-0.1,2H28.9z"/>
		<path class="st0" d="M39.8,8.6c-0.6,0-1.3,0-1.9,0.1V8.4c0.3,0,1.1-0.1,1.1-0.3c0-0.3,0.1-3.4,0.1-5.4c0-1,0-1.7,0-1.9
			c0-0.2-1-0.4-1-0.4V0.2c0.9,0,2.1,0.1,3.1,0.1c1.1,0,2.1,0,2.8-0.1l0,1.9h-0.3c-0.1-0.5-0.5-1.6-1.4-1.6h-2.1v3.6h1.8
			c0.5,0,0.6-0.6,0.7-1.1h0.3v2.4h-0.3c0-0.6-0.3-1-0.8-1h-1.8v3.2c0,0.3,0.1,0.6,0.5,0.7c0.1,0,0.2,0,0.3,0c0.2,0,0.4,0,0.4,0
			c0,0,0,0.1,0,0.2c0,0,0,0.1,0,0.1C41.1,8.6,40.4,8.6,39.8,8.6z"/>
		<path class="st0" d="M49.2,5.4c0,1,0,2,0,2.6c0,0.3,0.7,0.4,1,0.4l0,0.2c-0.3,0-0.7,0-1.1,0c-0.8,0-1.8,0-2.4,0.1V8.4
			c0,0,0,0,0.1,0c0.2,0,1,0,1-0.3C48,7.7,48,1,48,0.8c0-0.2-1-0.4-1-0.4V0.2c0.4,0,1,0.1,1.6,0.1c0.6,0,1.2,0,1.6-0.1v0.3
			c-0.4,0-0.9,0.1-0.9,0.3C49.3,0.9,49.2,3.3,49.2,5.4z"/>
		<path class="st0" d="M60,0.9c0,0.3,0,1.3,0,2.5c0,2.3,0,5.3,0,5.3h-0.5c0,0-5-6.9-5.2-7.1c0,0.8,0,1.4,0,1.9
			c0,1.9,0.1,1.4,0.1,3.8c0,0.2,0,0.3,0,0.5c0,0.3,0.1,0.5,0.5,0.5c0.1,0,0.8,0,0.8,0v0.2c-0.4,0-0.9,0-1.5,0c-0.5,0-1.1,0-1.6,0.1
			V8.4c0,0,0,0,0.1,0c0.2,0,1.1,0,1.2-0.3c0-2.2,0.1-3.3,0.1-4.7c0-0.7,0-1.4,0-2.4c0-0.2-1.2-0.6-1.2-0.6V0.2l2.5,0
			C56.3,1.9,59.4,6,59.4,6l0-5.1c0-0.3-0.6-0.4-1.1-0.4c-0.1,0-0.1,0-0.2,0l0-0.3c0.4,0.1,0.9,0.1,1.4,0.1c0.5,0,1.1,0,1.6-0.1v0.3
			C60.9,0.5,60,0.6,60,0.9z"/>
		<path class="st0" d="M65.9,5.4c0,1,0,2,0,2.6c0,0.3,0.7,0.4,1,0.4l0,0.2c-0.3,0-0.7,0-1.1,0c-0.8,0-1.8,0-2.4,0.1V8.4
			c0,0,0,0,0.1,0c0.2,0,1,0,1-0.3c0.1-0.4,0.1-7.1,0.1-7.3c0-0.2-1-0.4-1-0.4V0.2c0.4,0,1,0.1,1.6,0.1c0.6,0,1.2,0,1.6-0.1v0.3
			c-0.4,0-0.9,0.1-0.9,0.3C65.9,0.9,65.9,3.3,65.9,5.4z"/>
		<path class="st0" d="M76.6,0.9c0,0.3,0,1.3,0,2.5c0,2.3,0,5.3,0,5.3h-0.5c0,0-5-6.9-5.2-7.1c0,0.8,0,1.4,0,1.9
			c0,1.9,0.1,1.4,0.1,3.8c0,0.2,0,0.3,0,0.5c0,0.3,0.1,0.5,0.5,0.5c0.1,0,0.8,0,0.8,0v0.2c-0.4,0-0.9,0-1.5,0c-0.5,0-1.1,0-1.6,0.1
			V8.4c0,0,0,0,0.1,0c0.2,0,1.1,0,1.2-0.3c0-2.2,0.1-3.3,0.1-4.7c0-0.7,0-1.4,0-2.4c0-0.2-1.2-0.6-1.2-0.6V0.2l2.5,0
			C72.9,1.9,76.1,6,76.1,6l0-5.1c0-0.3-0.6-0.4-1.1-0.4c-0.1,0-0.1,0-0.2,0l0-0.3c0.4,0.1,0.9,0.1,1.4,0.1c0.5,0,1.1,0,1.6-0.1v0.3
			C77.6,0.5,76.6,0.6,76.6,0.9z"/>
		<path class="st0" d="M87,0.9c0.3-0.1,0.5-0.5,0.5-0.9h0.3l0,2.8h-0.4c-0.2-1.4-0.9-2.4-2.7-2.4c-1.7,0-2.9,1-2.9,4.2
			c0,1.9,0.8,3.8,2.7,3.8c0.9,0,1.8-0.4,2.2-1c0-0.3,0-0.7,0-1.1c0-0.3,0-0.6,0-0.8c-0.5-0.3-0.8-0.3-1.3-0.3V4.9H89v0.3
			c-0.4,0-0.8,0.1-0.9,0.3C88,5.6,88,6.1,88,6.7c0,0.9,0,1.9,0,1.9h-0.2c0,0-0.2-0.9-0.9-0.9c-0.4,0.6-1.4,1.1-2.5,1.1
			c-2.6,0-4.5-1.6-4.5-4.2C80,1.1,82.6,0,84.6,0C85.7,0,86.6,0.7,87,0.9z"/>
	</g>
	<g>
		<path class="st0" d="M10.2,19.1c1.8,0,2.8-0.9,2.8-2.2c0-1.6-1.5-2.4-2.5-2.4c-0.8,0-2.2,0-3.6,0v0.2c0,0,0.9,0.1,0.9,0.3
			c0,0.5,0,2.2,0,3.8c0,1.6,0,3.2,0,3.5c0,0.3-0.8,0.3-1,0.3c0,0-0.1,0-0.1,0v0.2c1.4,0,3.7,0,3.7,0v-0.2c-0.1,0-0.2,0-0.2,0
			c-0.5,0-1-0.1-1-0.5l0-3.3C9.2,19,9.4,19.1,10.2,19.1z M9.2,14.9c0.3,0,0.5,0,0.7,0c0.2,0,0.4,0,0.6,0c1.1,0.2,1.2,1.1,1.2,2
			c0,0.9-0.5,1.9-1.6,1.9c-0.7,0-0.9-0.1-0.9-0.1V14.9z"/>
		<path class="st0" d="M22.2,22.3C22,22,21.9,21.7,21.7,21c-0.4-1.1-0.9-2.5-2.3-2.6c1.2,0,2.2-0.9,2.2-1.8c0-1.3-1.3-2.1-2.3-2.1
			h-2c-0.6,0-1.2,0-1.9,0v0.2c0,0,0.9,0.1,1,0.4c0,0.1,0.1,1.6,0.1,3.4c0,1.1,0,2.4-0.1,3.4c0,0.3,0,0.4-0.1,0.5
			c0,0.3-0.8,0.3-1.1,0.3v0.2c0.4,0,0.9,0,1.5,0c0.8,0,1.5,0,2,0l0-0.3c0,0-0.1,0-0.6,0c-0.4,0-0.5-0.3-0.5-0.7l0-3.3l0.9,0
			c0.9,0,1.4,1.3,1.6,2.3c0.2,0.6,0.4,1.4,0.4,1.8v0.1l2.4,0v-0.2C22.8,22.7,22.5,22.7,22.2,22.3z M18.7,18.4c-0.1,0-0.2,0-0.9,0
			v-3.5c0.2,0,0.4,0,0.7,0c0.3,0,0.5,0,0.7,0.1c0.6,0.2,1,0.9,1,1.7C20.2,17.5,19.7,18.4,18.7,18.4z"/>
		<path class="st0" d="M29.9,14.2c-2,0-4.9,0.9-4.9,4.6c0,2.6,2.3,4.2,4.9,4.2c1.9,0,4.4-1.5,4.4-4.3C34.3,15,31.3,14.2,29.9,14.2z
			 M29.9,22.8c-2.6,0-3.3-2.6-3.3-4c0-3.5,1.6-4.3,3.2-4.3c1.9,0,2.9,1.5,2.9,4.3C32.7,21.1,31.6,22.8,29.9,22.8z"/>
		<path class="st0" d="M43.8,15.3c0.3-0.1,0.5-0.5,0.5-0.9h0.3l0,2.8h-0.4c-0.2-1.4-0.9-2.4-2.7-2.4c-1.7,0-2.9,1-2.9,4.2
			c0,1.9,0.8,3.8,2.7,3.8c0.9,0,1.8-0.4,2.2-1c0-0.3,0-0.7,0-1.1c0-0.3,0-0.6,0-0.8c-0.5-0.3-0.8-0.3-1.3-0.3v-0.3h3.6v0.3
			c-0.4,0-0.8,0.1-0.9,0.3c0,0.1-0.1,0.6-0.1,1.2c0,0.9,0,1.9,0,1.9h-0.2c0,0-0.2-0.9-0.9-0.9c-0.4,0.6-1.4,1.1-2.5,1.1
			c-2.6,0-4.5-1.6-4.5-4.2c0-3.6,2.6-4.6,4.7-4.6C42.6,14.3,43.5,15.1,43.8,15.3z"/>
		<path class="st0" d="M54.9,22.3c-0.2-0.3-0.3-0.6-0.5-1.3c-0.4-1.1-0.9-2.5-2.3-2.6c1.2,0,2.2-0.9,2.2-1.8c0-1.3-1.3-2.1-2.3-2.1
			h-2c-0.6,0-1.2,0-1.8,0v0.2c0,0,0.9,0.1,1,0.4c0,0.1,0.1,1.6,0.1,3.4c0,1.1,0,2.4-0.1,3.4c0,0.3,0,0.4-0.1,0.5
			c0,0.3-0.8,0.3-1.1,0.3v0.2c0.4,0,0.9,0,1.5,0c0.7,0,1.5,0,2,0l0-0.3c0,0-0.1,0-0.6,0c-0.4,0-0.5-0.3-0.5-0.7l0-3.3l0.9,0
			c0.9,0,1.4,1.3,1.6,2.3c0.2,0.6,0.4,1.4,0.4,1.8v0.1l2.4,0v-0.2C55.5,22.7,55.2,22.7,54.9,22.3z M51.4,18.4c-0.1,0-0.2,0-0.9,0
			v-3.5c0.2,0,0.4,0,0.7,0c0.3,0,0.5,0,0.7,0.1c0.6,0.2,1,0.9,1,1.7C52.9,17.5,52.4,18.4,51.4,18.4z"/>
		<path class="st0" d="M57.7,22.9v-0.2c0,0,0.3,0,0.4,0c0.2,0,0.7,0,0.7-0.3c0.1-0.4,0.1-3.2,0.1-5.1c0-1.1,0-2,0-2.1
			c0-0.2-1-0.4-1-0.4v-0.2c0.9,0,2.1,0,3.1,0c1.1,0,2.1,0,2.8,0l0,1.9h-0.3c-0.1-0.5-0.5-1.6-1.4-1.6h-2.1v3.6h2
			c0.5,0,0.6-0.6,0.7-1.1h0.3v2.4h-0.3c0-0.6-0.3-1-0.8-1h-1.9V22c0,0.3,0.1,0.6,0.5,0.6h2c0.5,0,1-1,1.1-1.7H64l-0.1,2H57.7z"/>
		<path class="st0" d="M71.8,15c0.2,0,0.4-0.2,0.5-0.6h0.2l0,2.6h-0.3c-0.1-0.7,0-1.1-0.4-1.6c-0.3-0.5-0.9-0.9-1.8-0.9
			c-0.9,0-1.5,0.9-1.5,1.5c0,0.8,0.8,1.5,1.9,1.9c1.5,0.6,2.7,1.5,2.7,2.7c0,1.3-0.7,2.6-3.2,2.6c-1.1,0-1.7-0.5-2-0.7
			c-0.3,0.1-0.3,0.3-0.5,0.5h-0.3l0-2.4h0.3c0.3,1.3,0.8,2.3,2.4,2.3c1.6,0,1.9-1,1.9-1.8c0-0.9-0.8-1.5-2-1.9
			c-1.4-0.5-2.3-1.5-2.3-2.5c0-1.2,0.5-2.4,2.6-2.4C71,14.2,71.6,14.7,71.8,15z"/>
		<path class="st0" d="M80.9,15c0.2,0,0.4-0.2,0.5-0.6h0.2l0,2.6h-0.3c-0.1-0.7,0-1.1-0.4-1.6c-0.3-0.5-0.9-0.9-1.8-0.9
			c-0.9,0-1.5,0.9-1.5,1.5c0,0.8,0.8,1.5,1.9,1.9c1.5,0.6,2.7,1.5,2.7,2.7c0,1.3-0.7,2.6-3.2,2.6c-1.1,0-1.7-0.5-2-0.7
			c-0.3,0.1-0.3,0.3-0.5,0.5h-0.3l0-2.4h0.3c0.3,1.3,0.8,2.3,2.4,2.3c1.6,0,1.9-1,1.9-1.8c0-0.9-0.8-1.5-2-1.9
			c-1.4-0.5-2.3-1.5-2.3-2.5c0-1.2,0.5-2.4,2.6-2.4C80,14.2,80.7,14.7,80.9,15z"/>
	</g>
</g>
</svg>
