<?xml version="1.0" encoding="utf-8"?>
<!-- Generator: Adobe Illustrator 21.0.0, SVG Export Plug-In . SVG Version: 6.00 Build 0)  -->
<svg version="1.1" id="F" xmlns="http://www.w3.org/2000/svg" xmlns:xlink="http://www.w3.org/1999/xlink" x="0px" y="0px"
	 viewBox="0 0 174.7 9" style="enable-background:new 0 0 174.7 9;" xml:space="preserve">
<style type="text/css">
	.st0{fill:#231F20;}
</style>
<path class="st0" d="M6.9,8.1C6.7,7.9,6.6,7.5,6.4,6.8C6,5.7,5.5,4.4,4.1,4.3c1.2,0,2.2-0.9,2.2-1.8C6.3,1.1,5,0.4,4,0.4H2
	c-0.6,0-1.2,0-1.9,0v0.2c0,0,0.9,0.1,1,0.4c0,0.1,0,1.6,0,3.4c0,1.1,0,2.4,0,3.4c0,0.3,0,0.4-0.1,0.5C1,8.5,0.3,8.5,0,8.5v0.2
	c0.4,0,0.9,0,1.5,0c0.7,0,1.5,0,2,0l0-0.3c0,0-0.1,0-0.6,0c-0.4,0-0.5-0.3-0.5-0.7l0-3.3l0.9,0c0.9,0,1.4,1.3,1.6,2.3
	c0.2,0.6,0.4,1.4,0.4,1.8c0,0,0,0.1,0,0.1l2.4,0V8.5C7.5,8.5,7.2,8.5,6.9,8.1z M3.4,4.2c-0.1,0-0.2,0-0.9,0V0.7c0.2,0,0.4,0,0.7,0
	c0.3,0,0.5,0,0.7,0.1c0.6,0.2,1,0.9,1,1.7C4.9,3.3,4.5,4.2,3.4,4.2z"/>
<path class="st0" d="M9.7,8.7V8.5c0,0,0.3,0,0.4,0c0.2,0,0.7,0,0.7-0.3C10.9,7.8,10.9,5,10.9,3c0-1.1,0-2,0-2.1c0-0.2-1-0.4-1-0.4
	V0.3c0.9,0,2.1,0,3.1,0c1.1,0,2.1,0,2.8,0l0,1.9h-0.3c-0.1-0.5-0.5-1.6-1.4-1.6h-2.1v3.6h2c0.5,0,0.6-0.6,0.7-1.1h0.3v2.4h-0.3
	c0-0.6-0.3-1-0.8-1h-1.9v3.2c0,0.3,0.1,0.6,0.5,0.6h2c0.5,0,1-1,1.1-1.7H16l-0.1,2H9.7z"/>
<path class="st0" d="M22.6,0.3c-0.8,0-2.2,0-3.6,0v0.2c0.4,0,1,0.1,1,0.6v6.7c-0.1,0.3-0.5,0.6-1.2,0.6v0.2c2.1,0,3.1,0,3.5,0
	c3,0,4.3-2.1,4.3-4C26.5,1.4,24.2,0.3,22.6,0.3z M25.1,4.8c0,2.5-0.6,3.6-3.2,3.6c-0.4,0-0.7-0.3-0.7-0.7c0-0.2,0-0.5,0-1
	c0-1.3,0-3.5,0-4.9V0.7c0.3,0,0.6,0,0.8,0C24.5,0.7,25.1,2.1,25.1,4.8L25.1,4.8z"/>
<path class="st0" d="M28.9,8.7V8.5c0,0,0.3,0,0.4,0c0.2,0,0.7,0,0.7-0.3C30.1,7.8,30.1,5,30.1,3c0-1.1,0-2,0-2.1c0-0.2-1-0.4-1-0.4
	V0.3c0.9,0,2.1,0,3.1,0c1.1,0,2.1,0,2.8,0l0,1.9h-0.3c-0.1-0.5-0.5-1.6-1.4-1.6h-2.1v3.6h2c0.5,0,0.6-0.6,0.7-1.1h0.3v2.4h-0.3
	c0-0.6-0.3-1-0.8-1h-1.9v3.2c0,0.3,0.1,0.6,0.5,0.6h2c0.5,0,1-1,1.1-1.7h0.3l-0.1,2H28.9z"/>
<path class="st0" d="M39.8,8.7c-0.6,0-1.3,0-1.9,0.1V8.5c0.3,0,1.1-0.1,1.1-0.3c0-0.3,0.1-3.4,0.1-5.4c0-1,0-1.7,0-1.9
	c0-0.2-1-0.4-1-0.4V0.3c0.9,0,2.1,0.1,3.1,0.1c1.1,0,2.1,0,2.8-0.1l0,1.9h-0.3c-0.1-0.5-0.5-1.6-1.4-1.6h-2.1v3.6h1.8
	c0.5,0,0.6-0.6,0.7-1.1h0.3v2.4h-0.3c0-0.6-0.3-1-0.8-1h-1.8v3.2c0,0.3,0.1,0.6,0.5,0.7c0.1,0,0.2,0,0.3,0c0.2,0,0.4,0,0.4,0
	c0,0,0,0.1,0,0.2c0,0,0,0.1,0,0.1C41.1,8.7,40.4,8.7,39.8,8.7z"/>
<path class="st0" d="M49.2,5.5c0,1,0,2,0,2.6c0,0.3,0.7,0.4,1,0.4l0,0.2c-0.3,0-0.7,0-1.1,0c-0.8,0-1.8,0-2.4,0.1V8.5c0,0,0,0,0.1,0
	c0.2,0,1,0,1-0.3C48,7.8,48,1.2,48,0.9c0-0.2-1-0.4-1-0.4V0.4c0.4,0,1,0.1,1.6,0.1c0.6,0,1.2,0,1.6-0.1v0.3c-0.4,0-0.9,0.1-0.9,0.3
	C49.3,1.1,49.2,3.5,49.2,5.5z"/>
<path class="st0" d="M60,1.1c0,0.3,0,1.3,0,2.5c0,2.3,0,5.3,0,5.3h-0.5c0,0-5-6.9-5.2-7.1c0,0.8,0,1.4,0,1.9c0,1.9,0.1,1.4,0.1,3.8
	c0,0.2,0,0.3,0,0.5c0,0.3,0.1,0.5,0.5,0.5c0.1,0,0.8,0,0.8,0v0.2c-0.4,0-0.9,0-1.5,0c-0.5,0-1.1,0-1.6,0.1V8.5c0,0,0,0,0.1,0
	c0.2,0,1.1,0,1.2-0.3c0-2.2,0.1-3.3,0.1-4.7c0-0.7,0-1.4,0-2.4c0-0.2-1.2-0.6-1.2-0.6V0.3l2.5,0c1.3,1.7,4.4,5.8,4.4,5.8l0-5.1
	c0-0.3-0.6-0.4-1.1-0.4c-0.1,0-0.1,0-0.2,0l0-0.3c0.4,0.1,0.9,0.1,1.4,0.1c0.5,0,1.1,0,1.6-0.1v0.3C60.9,0.7,60,0.8,60,1.1z"/>
<path class="st0" d="M65.9,5.5c0,1,0,2,0,2.6c0,0.3,0.7,0.4,1,0.4l0,0.2c-0.3,0-0.7,0-1.1,0c-0.8,0-1.8,0-2.4,0.1V8.5c0,0,0,0,0.1,0
	c0.2,0,1,0,1-0.3c0.1-0.4,0.1-7.1,0.1-7.3c0-0.2-1-0.4-1-0.4V0.4c0.4,0,1,0.1,1.6,0.1c0.6,0,1.2,0,1.6-0.1v0.3
	c-0.4,0-0.9,0.1-0.9,0.3C65.9,1.1,65.9,3.5,65.9,5.5z"/>
<path class="st0" d="M76.6,1.1c0,0.3,0,1.3,0,2.5c0,2.3,0,5.3,0,5.3h-0.5c0,0-5-6.9-5.2-7.1c0,0.8,0,1.4,0,1.9C70.9,5.5,71,5,71,7.4
	c0,0.2,0,0.3,0,0.5c0,0.3,0.1,0.5,0.5,0.5c0.1,0,0.8,0,0.8,0v0.2c-0.4,0-0.9,0-1.5,0c-0.5,0-1.1,0-1.6,0.1V8.5c0,0,0,0,0.1,0
	c0.2,0,1.1,0,1.2-0.3c0-2.2,0.1-3.3,0.1-4.7c0-0.7,0-1.4,0-2.4c0-0.2-1.2-0.6-1.2-0.6V0.3l2.5,0c1.3,1.7,4.4,5.8,4.4,5.8l0-5.1
	c0-0.3-0.6-0.4-1.1-0.4c-0.1,0-0.1,0-0.2,0l0-0.3c0.4,0.1,0.9,0.1,1.4,0.1c0.5,0,1.1,0,1.6-0.1v0.3C77.6,0.7,76.6,0.8,76.6,1.1z"/>
<path class="st0" d="M87,1.1c0.3-0.1,0.5-0.5,0.5-0.9h0.3l0,2.8h-0.4c-0.2-1.4-0.9-2.4-2.7-2.4c-1.7,0-2.9,1-2.9,4.2
	c0,1.9,0.8,3.8,2.7,3.8c0.9,0,1.8-0.4,2.2-1c0-0.3,0-0.7,0-1.1c0-0.3,0-0.6,0-0.8c-0.5-0.3-0.8-0.3-1.3-0.3V5H89v0.3
	c-0.4,0-0.8,0.1-0.9,0.3C88,5.8,88,6.3,88,6.8c0,0.9,0,1.9,0,1.9h-0.2c0,0-0.2-0.9-0.9-0.9C86.5,8.4,85.4,9,84.4,9
	C81.9,9,80,7.4,80,4.8c0-3.6,2.6-4.6,4.7-4.6C85.7,0.2,86.6,0.9,87,1.1z"/>
<path class="st0" d="M102.7,4.9c1.8,0,2.8-0.9,2.8-2.2c0-1.6-1.5-2.4-2.5-2.4c-0.8,0-2.2,0-3.6,0v0.2c0,0,0.9,0.1,0.9,0.3
	c0,0.5,0,2.2,0,3.8c0,1.6,0,3.2,0,3.5c0,0.3-0.8,0.3-1,0.3c0,0-0.1,0-0.1,0v0.2c1.4,0,3.7,0,3.7,0V8.5c-0.1,0-0.2,0-0.2,0
	c-0.5,0-1-0.1-1-0.5l0-3.3C101.7,4.8,101.9,4.9,102.7,4.9z M101.7,0.7c0.3,0,0.5,0,0.7,0c0.2,0,0.4,0,0.6,0c1.1,0.2,1.2,1.1,1.2,2
	c0,0.9-0.5,1.9-1.6,1.9c-0.7,0-0.9-0.1-0.9-0.1V0.7z"/>
<path class="st0" d="M114.7,8.1c-0.2-0.2-0.3-0.6-0.5-1.3c-0.4-1.1-0.9-2.5-2.3-2.6c1.2,0,2.2-0.9,2.2-1.8c0-1.3-1.3-2.1-2.3-2.1h-2
	c-0.6,0-1.2,0-1.9,0v0.2c0,0,0.9,0.1,1,0.4c0,0.1,0.1,1.6,0.1,3.4c0,1.1,0,2.4-0.1,3.4c0,0.3,0,0.4-0.1,0.5c0,0.3-0.8,0.3-1.1,0.3
	v0.2c0.4,0,0.9,0,1.5,0c0.8,0,1.5,0,2,0l0-0.3c0,0-0.1,0-0.6,0c-0.4,0-0.5-0.3-0.5-0.7l0-3.3l0.9,0c0.9,0,1.4,1.3,1.6,2.3
	c0.2,0.6,0.4,1.4,0.4,1.8v0.1l2.4,0V8.5C115.3,8.5,115,8.5,114.7,8.1z M111.2,4.2c-0.1,0-0.2,0-0.9,0V0.7c0.2,0,0.4,0,0.7,0
	c0.3,0,0.5,0,0.7,0.1c0.6,0.2,1,0.9,1,1.7C112.7,3.3,112.2,4.2,111.2,4.2z"/>
<path class="st0" d="M122.4,0c-2,0-4.9,0.9-4.9,4.6c0,2.6,2.3,4.2,4.9,4.2c1.9,0,4.4-1.5,4.4-4.3C126.8,0.8,123.8,0,122.4,0z
	 M122.4,8.6c-2.6,0-3.3-2.6-3.3-4c0-3.5,1.6-4.3,3.2-4.3c1.9,0,2.9,1.5,2.9,4.3C125.2,6.9,124.1,8.6,122.4,8.6z"/>
<path class="st0" d="M136.3,1.1c0.3-0.1,0.5-0.5,0.5-0.9h0.3l0,2.8h-0.4c-0.2-1.4-0.9-2.4-2.7-2.4c-1.7,0-2.9,1-2.9,4.2
	c0,1.9,0.8,3.8,2.7,3.8c0.9,0,1.8-0.4,2.2-1c0-0.3,0-0.7,0-1.1c0-0.3,0-0.6,0-0.8c-0.5-0.3-0.8-0.3-1.3-0.3V5h3.6v0.3
	c-0.4,0-0.8,0.1-0.9,0.3c0,0.1-0.1,0.6-0.1,1.2c0,0.9,0,1.9,0,1.9h-0.2c0,0-0.2-0.9-0.9-0.9c-0.4,0.6-1.4,1.1-2.5,1.1
	c-2.6,0-4.5-1.6-4.5-4.2c0-3.6,2.6-4.6,4.7-4.6C135.1,0.2,136,0.9,136.3,1.1z"/>
<path class="st0" d="M147.4,8.1c-0.2-0.2-0.3-0.6-0.5-1.3c-0.4-1.1-0.9-2.5-2.3-2.6c1.2,0,2.2-0.9,2.2-1.8c0-1.3-1.3-2.1-2.3-2.1h-2
	c-0.6,0-1.2,0-1.8,0v0.2c0,0,0.9,0.1,1,0.4c0,0.1,0.1,1.6,0.1,3.4c0,1.1,0,2.4-0.1,3.4c0,0.3,0,0.4-0.1,0.5c0,0.3-0.8,0.3-1.1,0.3
	v0.2c0.4,0,0.9,0,1.5,0c0.7,0,1.5,0,2,0l0-0.3c0,0-0.1,0-0.6,0c-0.4,0-0.5-0.3-0.5-0.7l0-3.3l0.9,0c0.9,0,1.4,1.3,1.6,2.3
	c0.2,0.6,0.4,1.4,0.4,1.8v0.1l2.4,0V8.5C148,8.5,147.7,8.5,147.4,8.1z M143.9,4.2c-0.1,0-0.2,0-0.9,0V0.7c0.2,0,0.4,0,0.7,0
	c0.3,0,0.5,0,0.7,0.1c0.6,0.2,1,0.9,1,1.7C145.4,3.3,144.9,4.2,143.9,4.2z"/>
<path class="st0" d="M150.2,8.7V8.5c0,0,0.3,0,0.4,0c0.2,0,0.7,0,0.7-0.3c0.1-0.4,0.1-3.2,0.1-5.1c0-1.1,0-2,0-2.1
	c0-0.2-1-0.4-1-0.4V0.3c0.9,0,2.1,0,3.1,0c1.1,0,2.1,0,2.8,0l0,1.9h-0.3c-0.1-0.5-0.5-1.6-1.4-1.6h-2.1v3.6h2c0.5,0,0.6-0.6,0.7-1.1
	h0.3v2.4h-0.3c0-0.6-0.3-1-0.8-1h-1.9v3.2c0,0.3,0.1,0.6,0.5,0.6h2c0.5,0,1-1,1.1-1.7h0.3l-0.1,2H150.2z"/>
<path class="st0" d="M164.3,0.8c0.2,0,0.4-0.2,0.5-0.6h0.2l0,2.6h-0.3c-0.1-0.7,0-1.1-0.4-1.6c-0.3-0.5-0.9-0.9-1.8-0.9
	c-0.9,0-1.5,0.9-1.5,1.5c0,0.8,0.8,1.5,1.9,1.9c1.5,0.6,2.7,1.5,2.7,2.7c0,1.3-0.7,2.6-3.2,2.6c-1.1,0-1.7-0.5-2-0.7
	c-0.3,0.1-0.3,0.3-0.5,0.5h-0.3l0-2.4h0.3c0.3,1.3,0.8,2.3,2.4,2.3c1.6,0,1.9-1,1.9-1.8c0-0.9-0.8-1.5-2-1.9
	c-1.4-0.5-2.3-1.5-2.3-2.5c0-1.2,0.5-2.4,2.6-2.4C163.4,0,164.1,0.5,164.3,0.8z"/>
<path class="st0" d="M173.4,0.8c0.2,0,0.4-0.2,0.5-0.6h0.2l0,2.6h-0.3c-0.1-0.7,0-1.1-0.4-1.6c-0.3-0.5-0.9-0.9-1.8-0.9
	c-0.9,0-1.5,0.9-1.5,1.5c0,0.8,0.8,1.5,1.9,1.9c1.5,0.6,2.7,1.5,2.7,2.7c0,1.3-0.7,2.6-3.2,2.6c-1.1,0-1.7-0.5-2-0.7
	c-0.3,0.1-0.3,0.3-0.5,0.5h-0.3l0-2.4h0.3c0.3,1.3,0.8,2.3,2.4,2.3c1.6,0,1.9-1,1.9-1.8c0-0.9-0.8-1.5-2-1.9
	c-1.4-0.5-2.3-1.5-2.3-2.5c0-1.2,0.5-2.4,2.6-2.4C172.5,0,173.1,0.5,173.4,0.8z"/>
</svg>
